<?xml version="1.0" encoding="utf-8"?>
<!-- Generator: Adobe Illustrator 19.0.0, SVG Export Plug-In . SVG Version: 6.00 Build 0)  -->
<svg version="1.1" id="Layer_1" xmlns="http://www.w3.org/2000/svg" xmlns:xlink="http://www.w3.org/1999/xlink" x="0px" y="0px"
	 viewBox="0 0 410 69" style="enable-background:new 0 0 410 69;" xml:space="preserve">
<style type="text/css">
	.st0{fill:#D62127;}
	.st1{fill-rule:evenodd;clip-rule:evenodd;fill:#D62127;}
	.st2{fill-rule:evenodd;clip-rule:evenodd;fill:#FFFFFF;}
</style>
<g id="XMLID_1_">
	<path id="XMLID_164_" class="st0" d="M271.1,1.9c-0.8,1.4-1.6,2.4-2.5,3c-1.2,0.8-2.7,1.3-4.4,1.3c-1,0-2.3-0.2-3.8-0.7
		c-1.5-0.4-2.5-0.7-3.2-0.7c-0.5,0-1,0.2-1.8,0.5c-0.1,0.1-0.2,0.2-0.5,0.4c-0.3,0.2-0.5,0.4-0.7,0.6l-2.9-0.8
		c0.3-0.5,0.5-0.9,0.7-1.3c0.4-0.6,0.9-1.1,1.4-1.5c1.1-0.9,2.4-1.4,3.9-1.4c1.1,0,2.4,0.2,4.1,0.6c1.6,0.5,2.7,0.7,3.5,0.8
		c0.8,0,1.4-0.2,2-0.5c0.6-0.3,1-0.7,1.3-1.2L271.1,1.9z"/>
	<path id="XMLID_160_" class="st0" d="M75.3,1.6h11.1c3.5,0,6.2,0.3,8,0.8c1.8,0.5,3.3,1.5,4.4,3.1c1.1,1.6,1.7,4.1,1.7,7.5
		c0,2.3-0.4,4-1.2,4.9c-0.8,0.9-2.3,1.6-4.6,2.1c2.6,0.5,4.3,1.4,5.2,2.7c0.9,1.3,1.4,3.2,1.4,5.8v3.7c0,2.7-0.3,4.7-1,6
		c-0.7,1.3-1.7,2.2-3.2,2.7c-1.4,0.5-4.4,0.7-8.9,0.7H75.3V1.6z M86.4,8.5v8.9c0.5,0,0.8,0,1.1,0c1.1,0,1.8-0.3,2.1-0.8
		c0.3-0.5,0.4-1.9,0.4-4.3c0-1.3-0.1-2.1-0.4-2.6c-0.2-0.5-0.6-0.8-1-1C88.3,8.6,87.6,8.5,86.4,8.5z M86.4,23.6v11.2
		c1.6,0,2.6-0.3,3-0.7c0.4-0.4,0.6-1.4,0.6-3v-3.7c0-1.7-0.2-2.8-0.6-3.1C89.1,23.9,88.1,23.7,86.4,23.6z"/>
	<path id="XMLID_156_" class="st0" d="M113.8,21.6h-10v-2.2c0-2.5,0.3-4.5,0.9-5.9c0.6-1.4,1.9-2.6,3.8-3.6c1.9-1.1,4.3-1.6,7.3-1.6
		c3.6,0,6.3,0.6,8.2,1.8c1.8,1.2,2.9,2.7,3.3,4.4c0.4,1.7,0.6,5.3,0.6,10.7v16.5h-10.4v-2.9c-0.7,1.2-1.5,2-2.5,2.6
		c-1,0.6-2.3,0.9-3.7,0.9c-1.9,0-3.6-0.5-5.1-1.5c-1.6-1-2.3-3.1-2.3-6.4v-2.7c0-2.5,0.4-4.1,1.2-5c0.8-0.9,2.9-1.9,6.1-3.1
		c3.5-1.3,5.4-2.2,5.6-2.6c0.2-0.4,0.4-1.4,0.4-2.7c0-1.7-0.1-2.8-0.4-3.4c-0.3-0.5-0.7-0.8-1.4-0.8c-0.7,0-1.2,0.2-1.3,0.7
		c-0.2,0.4-0.3,1.6-0.3,3.4V21.6z M124.4,1l-6.7,5.1h-4.1l3.6-5.1H124.4z M117.2,26.1c-1.7,1.2-2.7,2.2-3,2.9
		c-0.3,0.8-0.4,1.9-0.4,3.4c0,1.7,0.1,2.8,0.4,3.3c0.2,0.5,0.7,0.7,1.4,0.7c0.7,0,1.1-0.2,1.3-0.6c0.2-0.4,0.3-1.4,0.3-3.1V26.1z"/>
	<path id="XMLID_153_" class="st0" d="M155.1,20.4v8c0,2.9-0.2,5.1-0.5,6.5c-0.3,1.4-1,2.7-2,3.9c-1,1.2-2.4,2.1-4,2.6
		c-1.6,0.6-3.5,0.9-5.6,0.9c-2.4,0-4.4-0.2-6-0.7c-1.6-0.5-2.9-1.2-3.8-2.2c-0.9-1-1.6-2.2-1.9-3.6c-0.4-1.4-0.6-3.5-0.6-6.3v-8.4
		c0-3,0.4-5.4,1.1-7.1c0.7-1.7,2-3.1,3.8-4.1c1.8-1,4.2-1.6,7-1.6c2.4,0,4.4,0.3,6.2,1c1.7,0.7,3,1.5,4,2.6c0.9,1.1,1.6,2.2,1.9,3.3
		C154.9,16.3,155.1,18.1,155.1,20.4z M144.4,17.9c0-1.7-0.1-2.7-0.3-3.2c-0.2-0.4-0.6-0.7-1.2-0.7c-0.6,0-1.1,0.2-1.3,0.7
		c-0.2,0.4-0.3,1.5-0.3,3.2v14.8c0,1.5,0.1,2.6,0.3,3c0.2,0.5,0.6,0.7,1.2,0.7c0.6,0,1-0.2,1.3-0.6c0.2-0.4,0.3-1.4,0.3-2.8V17.9z"
		/>
	<path id="XMLID_151_" class="st0" d="M190.1,1.6v40H179V24.8h-3.3v16.8h-11.1v-40h11.1V16h3.3V1.6H190.1z"/>
	<path id="XMLID_147_" class="st0" d="M203.2,21.6h-10v-2.2c0-2.5,0.3-4.5,0.9-5.9c0.6-1.4,1.9-2.6,3.8-3.6c1.9-1.1,4.3-1.6,7.3-1.6
		c3.6,0,6.3,0.6,8.2,1.8c1.8,1.2,2.9,2.7,3.3,4.4c0.4,1.7,0.6,5.3,0.6,10.7v16.5h-10.4v-2.9c-0.7,1.2-1.5,2-2.5,2.6
		c-1,0.6-2.3,0.9-3.7,0.9c-1.9,0-3.6-0.5-5.1-1.5c-1.6-1-2.3-3.1-2.3-6.4v-2.7c0-2.5,0.4-4.1,1.2-5c0.8-0.9,2.9-1.9,6.2-3.1
		c3.5-1.3,5.4-2.2,5.6-2.6c0.2-0.4,0.4-1.4,0.4-2.7c0-1.7-0.1-2.8-0.4-3.4c-0.3-0.5-0.7-0.8-1.4-0.8c-0.7,0-1.2,0.2-1.3,0.7
		c-0.2,0.4-0.3,1.6-0.3,3.4V21.6z M204.7,1l3.6,5.1h-4.1L197.5,1H204.7z M206.6,26.1c-1.7,1.2-2.7,2.2-3,2.9
		c-0.3,0.8-0.4,1.9-0.4,3.4c0,1.7,0.1,2.8,0.4,3.3c0.2,0.5,0.7,0.7,1.4,0.7c0.7,0,1.1-0.2,1.3-0.6c0.2-0.4,0.3-1.4,0.3-3.1V26.1z"/>
	<path id="XMLID_145_" class="st0" d="M249.2,1.6v8h-6.6v32h-11.1v-32h-6.6v-8H249.2z"/>
	<g id="XMLID_141_">
		<path id="XMLID_142_" class="st0" d="M249.2,3.6 M261.8,8.9v32.8h-11V8.9H261.8z"/>
	</g>
	<path id="XMLID_139_" class="st0" d="M276,8.9l-0.2,3c0.8-1.2,1.7-2.1,2.8-2.7c1.1-0.6,2.4-0.9,3.9-0.9c1.8,0,3.3,0.4,4.5,1.2
		c1.2,0.8,1.9,1.8,2.2,3.1c0.3,1.2,0.5,3.3,0.5,6.1v23h-10.7V18.9c0-2.3-0.1-3.6-0.2-4.1c-0.2-0.5-0.6-0.7-1.3-0.7
		c-0.8,0-1.2,0.3-1.4,0.9c-0.2,0.6-0.3,2.1-0.3,4.6v22.2h-10.7V8.9H276z"/>
	<path id="XMLID_137_" class="st0" d="M303.5,1.6v9c0.9-0.8,1.9-1.4,3-1.8c1.1-0.4,2.2-0.6,3.4-0.6c1.9,0,3.5,0.4,4.8,1.3
		c1.3,0.9,2.1,1.9,2.4,3.1c0.3,1.2,0.4,3.3,0.4,6.4v22.6h-10.7V18.6c0-1.9-0.1-3.1-0.3-3.7c-0.2-0.5-0.7-0.8-1.4-0.8
		c-0.7,0-1.1,0.3-1.3,0.8c-0.2,0.6-0.3,1.7-0.3,3.3v23.4h-10.7v-40H303.5z"/>
</g>
<g id="XMLID_2_">
	<path id="XMLID_115_" d="M83.3,61.6h-0.9c-0.1-0.5-0.4-0.9-0.8-1.1c-0.3-0.2-0.7-0.3-1.2-0.3c-0.7,0-1.2,0.2-1.7,0.6
		c-0.5,0.5-0.7,1.1-0.7,2c0,0.8,0.2,1.5,0.5,1.9c0.4,0.5,1,0.8,1.9,0.8c0.4,0,0.8-0.1,1.1-0.3c0.5-0.3,0.8-0.8,0.9-1.5h0.9
		c-0.1,0.8-0.5,1.5-1,1.9c-0.6,0.5-1.3,0.7-2.1,0.7c-0.9,0-1.7-0.3-2.2-0.8c-0.7-0.6-1-1.5-1-2.7c0-1,0.3-1.8,0.9-2.5
		c0.6-0.6,1.4-0.9,2.5-0.9c0.9,0,1.6,0.2,2.1,0.7C82.9,60.5,83.2,61,83.3,61.6z"/>
	<path id="XMLID_112_" d="M89.7,60c0.5,0.3,0.9,0.8,1.1,1.3c0.2,0.5,0.3,1,0.3,1.5c0,0.9-0.2,1.6-0.7,2.3c-0.6,0.8-1.5,1.2-2.8,1.2
		c-1.2,0-2.1-0.4-2.7-1.2c-0.5-0.6-0.8-1.4-0.8-2.3c0-0.9,0.2-1.6,0.7-2.2c0.6-0.8,1.5-1.2,2.8-1.2c0.3,0,0.6,0,0.9,0.1
		c0.3,0.1,0.5,0.2,0.8,0.3c0,0,0.1,0,0.2-0.1c0.1-0.1,0.2-0.1,0.2-0.1c0.1-0.1,0.1-0.2,0.2-0.2c0-0.1,0-0.2,0-0.3h-0.6v-0.6h1v0.8
		c0,0.2-0.1,0.3-0.3,0.5C90,59.9,89.8,60,89.7,60z M90.2,62.9c0-0.8-0.2-1.4-0.7-1.9c-0.5-0.5-1.1-0.8-1.8-0.8
		c-0.8,0-1.4,0.2-1.8,0.7c-0.5,0.5-0.7,1.1-0.7,1.9c0,0.8,0.2,1.4,0.7,1.9c0.4,0.5,1.1,0.7,1.8,0.7c0.8,0,1.4-0.2,1.8-0.7
		C89.9,64.3,90.2,63.7,90.2,62.9z"/>
	<path id="XMLID_109_" d="M100.6,66.2l-0.5,0.5L99,65.9c-0.5,0.3-1.1,0.5-1.8,0.5c-1.2,0-2.1-0.4-2.7-1.2c-0.5-0.6-0.8-1.4-0.8-2.3
		c0-0.9,0.2-1.6,0.7-2.2c0.6-0.8,1.5-1.2,2.8-1.2c1.2,0,2.1,0.4,2.7,1.2c0.5,0.6,0.8,1.4,0.8,2.3c0,0.5-0.1,0.9-0.2,1.3
		c-0.2,0.5-0.4,0.9-0.8,1.2L100.6,66.2z M97.5,64.8l0.5-0.5l0.9,0.6c0.3-0.2,0.5-0.5,0.6-0.9c0.1-0.4,0.2-0.7,0.2-1.2
		c0-0.8-0.2-1.4-0.7-1.9c-0.5-0.5-1.1-0.8-1.8-0.8c-0.8,0-1.4,0.2-1.8,0.7c-0.5,0.5-0.7,1.1-0.7,1.9c0,0.8,0.2,1.4,0.7,1.9
		c0.4,0.5,1.1,0.7,1.8,0.7c0.4,0,0.7-0.1,1.1-0.2L97.5,64.8z"/>
	<path id="XMLID_107_" d="M106.4,59.6h1v4.3c0,0.7-0.2,1.3-0.7,1.7c-0.5,0.5-1.2,0.7-2.2,0.7c-0.9,0-1.6-0.2-2.1-0.7
		c-0.4-0.4-0.6-1-0.6-1.7v-4.4h1v4.1c0,0.6,0.2,1.1,0.6,1.4c0.3,0.2,0.7,0.4,1.2,0.4c0.5,0,1-0.1,1.3-0.4c0.4-0.3,0.6-0.8,0.6-1.4
		V59.6z"/>
	<path id="XMLID_104_" d="M112,64.3h-2.9l-0.8,1.9h-1l2.7-6.6h1.1l2.6,6.6h-1.1L112,64.3z M109.4,63.5h2.2l-1.1-2.9L109.4,63.5z"/>
	<path id="XMLID_102_" d="M119.3,59.6h0.9v6.6h-1.1l-3.7-5.3l0,5.3h-0.9v-6.6h1.2l3.6,5.3L119.3,59.6z"/>
	<path id="XMLID_100_" d="M130.1,61.6h-0.9c-0.1-0.5-0.4-0.9-0.8-1.1c-0.3-0.2-0.7-0.3-1.2-0.3c-0.7,0-1.2,0.2-1.7,0.6
		c-0.5,0.5-0.7,1.1-0.7,2c0,0.8,0.2,1.5,0.5,1.9c0.4,0.5,1,0.8,1.9,0.8c0.4,0,0.8-0.1,1.1-0.3c0.5-0.3,0.8-0.8,0.9-1.5h0.9
		c-0.1,0.8-0.5,1.5-1,1.9c-0.6,0.5-1.3,0.7-2.1,0.7c-0.9,0-1.6-0.3-2.2-0.8c-0.7-0.6-1-1.5-1-2.7c0-1,0.3-1.8,0.9-2.5
		c0.6-0.6,1.4-0.9,2.5-0.9c0.9,0,1.6,0.2,2.1,0.7C129.7,60.5,130,61,130.1,61.6z"/>
	<path id="XMLID_97_" d="M135.9,59.6h1v4.3c0,0.7-0.2,1.3-0.7,1.7c-0.5,0.5-1.2,0.7-2.2,0.7c-0.9,0-1.6-0.2-2.1-0.7
		c-0.4-0.4-0.6-1-0.6-1.7v-4.4h1v4.1c0,0.6,0.2,1.1,0.6,1.4c0.3,0.2,0.7,0.4,1.2,0.4c0.5,0,1-0.1,1.3-0.4c0.4-0.3,0.6-0.8,0.6-1.4
		V59.6z M134.4,59.1h-0.6c0-0.2,0-0.4,0.1-0.6c0.1-0.1,0.2-0.3,0.4-0.4c0.2-0.1,0.3-0.3,0.3-0.4c0-0.1,0-0.3-0.1-0.3
		c-0.1-0.1-0.2-0.1-0.3-0.1c-0.2,0-0.3,0-0.4,0.1c-0.1,0.1-0.1,0.2-0.1,0.3l-0.6,0c0-0.3,0.1-0.6,0.4-0.7c0.2-0.1,0.4-0.2,0.7-0.2
		c0.3,0,0.5,0,0.7,0.1c0.3,0.2,0.5,0.4,0.5,0.7c0,0.2,0,0.3-0.1,0.4c-0.1,0.1-0.2,0.2-0.4,0.4C134.5,58.6,134.4,58.8,134.4,59.1z"/>
	<path id="XMLID_94_" d="M142,64.3h-2.9l-0.8,1.9h-1l2.7-6.6h1.1l2.6,6.6h-1.1L142,64.3z M139.4,63.5h2.2l-1.1-2.9L139.4,63.5z"/>
	<path id="XMLID_91_" d="M146.5,63.2v-0.8h0.5v-2.8h2.9c0.9,0,1.7,0.3,2.2,0.9c0.5,0.6,0.8,1.3,0.8,2.3c0,0.4,0,0.8-0.1,1.1
		c-0.2,0.6-0.4,1.1-0.8,1.5c-0.5,0.5-1.2,0.7-2.1,0.7h-2.9v-3H146.5z M149.9,62.4v0.8H148v2.2h1.9c0.6,0,1.1-0.2,1.5-0.7
		c0.4-0.4,0.6-1.1,0.6-1.9c0-0.8-0.2-1.4-0.6-1.9c-0.4-0.4-0.9-0.6-1.6-0.6H148v2H149.9z"/>
	<path id="XMLID_87_" d="M158.2,64.3h-2.9l-0.8,1.9h-1l2.7-6.6h1.1l2.6,6.6h-1.1L158.2,64.3z M155.6,63.5h2.2l-1.1-2.9L155.6,63.5z
		 M157,59.3h-0.6c0-0.2,0-0.4,0.1-0.6c0.1-0.1,0.2-0.3,0.4-0.4c0.2-0.1,0.3-0.3,0.3-0.4c0-0.1,0-0.3-0.1-0.3
		c-0.1-0.1-0.2-0.1-0.3-0.1c-0.2,0-0.3,0-0.4,0.1c-0.1,0.1-0.1,0.2-0.1,0.3l-0.6,0c0-0.3,0.1-0.6,0.4-0.7c0.2-0.1,0.4-0.2,0.7-0.2
		c0.3,0,0.5,0,0.7,0.1c0.3,0.2,0.5,0.4,0.5,0.7c0,0.2,0,0.3-0.1,0.4c-0.1,0.1-0.2,0.2-0.4,0.4C157.1,58.8,157,59,157,59.3z"/>
	<path id="XMLID_85_" d="M165.5,59.6h0.9v6.6h-1.1l-3.7-5.3l0,5.3h-0.9v-6.6h1.2l3.6,5.3L165.5,59.6z"/>
	<path id="XMLID_83_" d="M171,63.4v-0.7h3.1v3.5h-0.6l-0.2-0.9c-0.2,0.3-0.6,0.6-1,0.8c-0.4,0.2-0.9,0.3-1.4,0.3
		c-0.6,0-1-0.1-1.4-0.2c-0.3-0.1-0.5-0.3-0.8-0.5c-0.5-0.4-0.8-0.9-1-1.5c-0.1-0.4-0.2-0.8-0.2-1.3c0-0.9,0.3-1.7,0.8-2.3
		c0.6-0.7,1.5-1.1,2.6-1.1c0.7,0,1.4,0.2,2,0.5c0.6,0.4,1,0.9,1.1,1.6h-0.9c-0.1-0.5-0.4-0.9-0.9-1.1c-0.3-0.2-0.8-0.3-1.2-0.3
		c-0.7,0-1.2,0.2-1.7,0.7c-0.5,0.5-0.7,1.1-0.7,2c0,0.8,0.2,1.4,0.5,1.8c0.4,0.6,1,0.9,1.9,0.9c0.3,0,0.5,0,0.7-0.1
		c0.3-0.1,0.6-0.2,0.8-0.4c0.3-0.2,0.5-0.5,0.6-0.8c0.1-0.3,0.2-0.6,0.2-1H171z"/>
	<path id="XMLID_79_" d="M178,66.2v-6.6h3.2c0.6,0,1.1,0.2,1.5,0.5c0.3,0.3,0.5,0.7,0.5,1.2c0,0.3-0.1,0.5-0.2,0.7
		c-0.2,0.3-0.4,0.5-0.8,0.6c0.4,0.2,0.7,0.3,0.8,0.5c0.3,0.3,0.5,0.7,0.5,1.2c0,0.6-0.2,1-0.6,1.4c-0.4,0.4-1.1,0.6-1.8,0.6H178z
		 M179,60.4v2h1.7c0.5,0,0.9-0.1,1.1-0.2c0.3-0.2,0.4-0.4,0.4-0.8c0-0.3-0.1-0.6-0.3-0.7c-0.2-0.2-0.6-0.3-1.2-0.3H179z M179,63.1
		v2.3h2.1c0.5,0,0.9-0.1,1.1-0.3c0.3-0.2,0.4-0.5,0.4-0.9c0-0.4-0.2-0.7-0.5-0.9c-0.3-0.1-0.7-0.2-1.1-0.2H179z"/>
	<path id="XMLID_74_" d="M191.3,62.9c0,0.9-0.2,1.6-0.7,2.3c-0.6,0.8-1.5,1.2-2.8,1.2c-1.2,0-2.1-0.4-2.7-1.2
		c-0.5-0.6-0.8-1.4-0.8-2.3c0-0.9,0.2-1.6,0.7-2.2c0.6-0.8,1.5-1.2,2.8-1.2c1.2,0,2.1,0.4,2.7,1.2C191.1,61.3,191.3,62,191.3,62.9z
		 M190.3,62.9c0-0.8-0.2-1.4-0.7-1.9c-0.5-0.5-1.1-0.8-1.8-0.8c-0.8,0-1.4,0.2-1.8,0.7c-0.5,0.5-0.7,1.1-0.7,1.9
		c0,0.8,0.2,1.4,0.7,1.9c0.4,0.5,1.1,0.7,1.8,0.7c0.8,0,1.4-0.2,1.8-0.7C190.1,64.3,190.3,63.7,190.3,62.9z M187.8,58.1l-0.7,0.9
		h-0.8l1-1.3h0.9l1,1.3h-0.8L187.8,58.1z M188.3,67.7h-0.9v-0.9h0.9V67.7z"/>
	<path id="XMLID_71_" d="M193.8,63.2v-0.8h0.5v-2.8h2.9c0.9,0,1.7,0.3,2.2,0.9c0.5,0.6,0.8,1.3,0.8,2.3c0,0.4,0,0.8-0.1,1.1
		c-0.2,0.6-0.4,1.1-0.8,1.5c-0.5,0.5-1.2,0.7-2.1,0.7h-2.9v-3H193.8z M197.2,62.4v0.8h-1.9v2.2h1.9c0.6,0,1.1-0.2,1.5-0.7
		c0.4-0.4,0.6-1.1,0.6-1.9c0-0.8-0.2-1.4-0.6-1.9c-0.4-0.4-0.9-0.6-1.6-0.6h-1.8v2H197.2z"/>
	<path id="XMLID_67_" d="M205.4,64.3h-2.9l-0.8,1.9h-1l2.7-6.6h1.1l2.6,6.6h-1.1L205.4,64.3z M202.8,63.5h2.2l-1.1-2.9L202.8,63.5z
		 M204.3,59.3h-0.6c0-0.2,0-0.4,0.1-0.6c0.1-0.1,0.2-0.3,0.4-0.4c0.2-0.1,0.3-0.3,0.3-0.4c0-0.1,0-0.3-0.1-0.3
		c-0.1-0.1-0.2-0.1-0.3-0.1c-0.2,0-0.3,0-0.4,0.1c-0.1,0.1-0.1,0.2-0.1,0.3l-0.6,0c0-0.3,0.1-0.6,0.4-0.7c0.2-0.1,0.4-0.2,0.7-0.2
		c0.3,0,0.5,0,0.7,0.1c0.3,0.2,0.5,0.4,0.5,0.7c0,0.2,0,0.3-0.1,0.4c-0.1,0.1-0.2,0.2-0.4,0.4C204.4,58.8,204.3,59,204.3,59.3z"/>
	<path id="XMLID_65_" d="M212.7,59.6h0.9v6.6h-1.1l-3.7-5.3l0,5.3H208v-6.6h1.2l3.6,5.3L212.7,59.6z"/>
	<path id="XMLID_63_" d="M218.3,63.4v-0.7h3.1v3.5h-0.6l-0.2-0.9c-0.2,0.3-0.6,0.6-1,0.8c-0.4,0.2-0.9,0.3-1.4,0.3
		c-0.6,0-1-0.1-1.4-0.2c-0.3-0.1-0.5-0.3-0.8-0.5c-0.5-0.4-0.8-0.9-1-1.5c-0.1-0.4-0.2-0.8-0.2-1.3c0-0.9,0.3-1.7,0.8-2.3
		c0.6-0.7,1.5-1.1,2.6-1.1c0.7,0,1.4,0.2,2,0.5c0.6,0.4,1,0.9,1.1,1.6h-0.9c-0.1-0.5-0.4-0.9-0.9-1.1c-0.3-0.2-0.8-0.3-1.2-0.3
		c-0.7,0-1.2,0.2-1.7,0.7c-0.5,0.5-0.7,1.1-0.7,2c0,0.8,0.2,1.4,0.5,1.8c0.4,0.6,1,0.9,1.9,0.9c0.3,0,0.5,0,0.7-0.1
		c0.3-0.1,0.6-0.2,0.8-0.4c0.3-0.2,0.5-0.5,0.6-0.8c0.1-0.3,0.2-0.6,0.2-1H218.3z"/>
	<path id="XMLID_61_" d="M231.2,61.6h-0.9c-0.1-0.5-0.4-0.9-0.8-1.1c-0.3-0.2-0.7-0.3-1.2-0.3c-0.7,0-1.2,0.2-1.7,0.6
		c-0.5,0.5-0.7,1.1-0.7,2c0,0.8,0.2,1.5,0.5,1.9c0.4,0.5,1,0.8,1.9,0.8c0.4,0,0.8-0.1,1.1-0.3c0.5-0.3,0.8-0.8,0.9-1.5h0.9
		c-0.1,0.8-0.5,1.5-1,1.9c-0.6,0.5-1.3,0.7-2.1,0.7c-0.9,0-1.7-0.3-2.2-0.8c-0.7-0.6-1-1.5-1-2.7c0-1,0.3-1.8,0.9-2.5
		c0.6-0.6,1.4-0.9,2.5-0.9c0.9,0,1.6,0.2,2.1,0.7C230.9,60.5,231.2,61,231.2,61.6z"/>
	<path id="XMLID_56_" d="M239.1,62.9c0,0.9-0.2,1.6-0.7,2.3c-0.6,0.8-1.5,1.2-2.8,1.2c-1.2,0-2.1-0.4-2.7-1.2
		c-0.5-0.6-0.8-1.4-0.8-2.3c0-0.9,0.2-1.6,0.7-2.2c0.6-0.8,1.5-1.2,2.8-1.2c1.2,0,2.1,0.4,2.7,1.2C238.9,61.3,239.1,62,239.1,62.9z
		 M238.1,62.9c0-0.8-0.2-1.4-0.7-1.9c-0.5-0.5-1.1-0.8-1.8-0.8c-0.8,0-1.4,0.2-1.8,0.7c-0.5,0.5-0.7,1.1-0.7,1.9
		c0,0.8,0.2,1.4,0.7,1.9c0.4,0.5,1.1,0.7,1.8,0.7c0.8,0,1.4-0.2,1.8-0.7C237.9,64.3,238.1,63.7,238.1,62.9z M235.6,58.1L235,59h-0.8
		l1-1.3h0.9l1,1.3h-0.8L235.6,58.1z M236.1,67.7h-0.9v-0.9h0.9V67.7z"/>
	<path id="XMLID_54_" d="M244.3,59.6h0.9v6.6h-1.1l-3.7-5.3l0,5.3h-0.9v-6.6h1.2l3.6,5.3L244.3,59.6z"/>
	<path id="XMLID_52_" d="M249.9,63.4v-0.7h3.1v3.5h-0.6l-0.2-0.9c-0.2,0.3-0.6,0.6-1,0.8c-0.4,0.2-0.9,0.3-1.4,0.3
		c-0.6,0-1-0.1-1.4-0.2c-0.3-0.1-0.5-0.3-0.8-0.5c-0.5-0.4-0.8-0.9-1-1.5c-0.1-0.4-0.2-0.8-0.2-1.3c0-0.9,0.3-1.7,0.8-2.3
		c0.6-0.7,1.5-1.1,2.6-1.1c0.7,0,1.4,0.2,2,0.5c0.6,0.4,1,0.9,1.1,1.6h-0.9c-0.1-0.5-0.4-0.9-0.9-1.1c-0.3-0.2-0.8-0.3-1.2-0.3
		c-0.7,0-1.2,0.2-1.7,0.7c-0.5,0.5-0.7,1.1-0.7,2c0,0.8,0.2,1.4,0.5,1.8c0.4,0.6,1,0.9,1.9,0.9c0.3,0,0.5,0,0.7-0.1
		c0.3-0.1,0.6-0.2,0.8-0.4c0.3-0.2,0.5-0.5,0.6-0.8c0.1-0.3,0.2-0.6,0.2-1H249.9z"/>
	<path id="XMLID_50_" d="M262.1,61.5h-0.9c0-0.5-0.2-0.8-0.6-1.1c-0.3-0.2-0.7-0.3-1.2-0.3c-0.4,0-0.8,0.1-1.1,0.2
		c-0.4,0.2-0.6,0.5-0.6,1c0,0.2,0.1,0.4,0.3,0.6c0.1,0.1,0.3,0.2,0.6,0.2l2.1,0.4c0.5,0.1,0.9,0.3,1.1,0.6c0.3,0.3,0.5,0.7,0.5,1.2
		c0,0.7-0.3,1.2-0.9,1.6c-0.5,0.3-1.1,0.4-1.9,0.4c-0.6,0-1.1-0.1-1.5-0.2c-0.2-0.1-0.5-0.2-0.7-0.4c-0.3-0.2-0.5-0.5-0.6-0.8
		c-0.1-0.3-0.2-0.6-0.2-0.9h0.9c0,0.5,0.2,0.9,0.6,1.2c0.3,0.2,0.8,0.3,1.3,0.3c0.6,0,1.1-0.1,1.5-0.3c0.3-0.2,0.4-0.4,0.4-0.8
		c0-0.3-0.1-0.6-0.3-0.7c-0.2-0.1-0.6-0.3-1.2-0.4l-1.5-0.3c-0.4-0.1-0.7-0.2-0.9-0.4c-0.4-0.3-0.6-0.7-0.6-1.2c0-0.6,0.2-1,0.6-1.4
		c0.4-0.4,1.1-0.6,1.9-0.6c1.1,0,1.9,0.3,2.3,0.8C262,60.6,262.1,61,262.1,61.5z"/>
	<path id="XMLID_46_" d="M267.5,64.3h-2.9l-0.8,1.9h-1l2.7-6.6h1.1l2.6,6.6h-1.1L267.5,64.3z M264.9,63.5h2.2l-1.1-2.9L264.9,63.5z
		 M266.3,59.3h-0.6c0-0.2,0-0.4,0.1-0.6c0.1-0.1,0.2-0.3,0.4-0.4c0.2-0.1,0.3-0.3,0.3-0.4c0-0.1,0-0.3-0.1-0.3
		c-0.1-0.1-0.2-0.1-0.3-0.1c-0.2,0-0.3,0-0.4,0.1c-0.1,0.1-0.1,0.2-0.1,0.3l-0.6,0c0-0.3,0.1-0.6,0.4-0.7c0.2-0.1,0.4-0.2,0.7-0.2
		c0.3,0,0.5,0,0.7,0.1c0.3,0.2,0.5,0.4,0.5,0.7c0,0.2,0,0.3-0.1,0.4c-0.1,0.1-0.2,0.2-0.4,0.4C266.4,58.8,266.3,59,266.3,59.3z"/>
	<path id="XMLID_44_" d="M274.8,59.6h0.9v6.6h-1.1l-3.7-5.3l0,5.3h-0.9v-6.6h1.2l3.6,5.3L274.8,59.6z"/>
	<path id="XMLID_42_" d="M284.3,59.6h1.1l-2.6,6.6h-1l-2.6-6.6h1.1l2.1,5.6L284.3,59.6z"/>
	<path id="XMLID_40_" d="M287.4,59.6v6.6h-1v-6.6H287.4z"/>
	<path id="XMLID_36_" d="M294.1,65.4v0.8h-5.3v-6.6h5.2v0.8h-4.3v2h3.9v0.8h-3.9v2.2H294.1z M291.4,58.1l-0.7,0.9H290l1-1.3h0.9
		l1,1.3h-0.8L291.4,58.1z M291.7,67.7h-0.9v-0.9h0.9V67.7z"/>
	<path id="XMLID_34_" d="M294.6,60.4v-0.8h5.8v0.8H298v5.8h-1v-5.8H294.6z"/>
	<path id="XMLID_32_" d="M308.4,59.6h0.9v6.6h-1.1l-3.7-5.3l0,5.3h-0.9v-6.6h1.2l3.6,5.3L308.4,59.6z"/>
	<path id="XMLID_29_" d="M314.8,64.3h-2.9l-0.8,1.9h-1l2.7-6.6h1.1l2.6,6.6h-1.1L314.8,64.3z M312.2,63.5h2.2l-1.1-2.9L312.2,63.5z"
		/>
	<path id="XMLID_27_" d="M324.2,66.2h-0.9v-5.5l-2,5.5h-1l-2-5.5v5.5h-0.9v-6.6h1.4l2.1,5.5l2.1-5.5h1.4V66.2z"/>
	<path id="XMLID_25_" d="M327.4,60.4v-0.8h5.8v0.8h-2.4v5.8h-1v-5.8H327.4z"/>
	<path id="XMLID_22_" d="M334.9,59.3h-0.6c0-0.2,0-0.4,0.1-0.6c0.1-0.1,0.2-0.3,0.4-0.4c0.2-0.1,0.3-0.3,0.3-0.4
		c0-0.1,0-0.3-0.1-0.3c-0.1-0.1-0.2-0.1-0.3-0.1c-0.2,0-0.3,0-0.4,0.1c-0.1,0.1-0.1,0.2-0.1,0.3l-0.6,0c0-0.3,0.1-0.6,0.4-0.7
		c0.2-0.1,0.4-0.2,0.7-0.2c0.3,0,0.5,0,0.7,0.1c0.3,0.2,0.5,0.4,0.5,0.7c0,0.2,0,0.3-0.1,0.4c-0.1,0.1-0.2,0.2-0.4,0.4
		C335,58.8,334.9,59,334.9,59.3z M335.1,59.6v6.6h-1v-6.6H335.1z"/>
	<path id="XMLID_20_" d="M341.2,59.6h0.9v6.6H341l-3.7-5.3l0,5.3h-0.9v-6.6h1.2l3.6,5.3L341.2,59.6z"/>
	<path id="XMLID_18_" d="M348.3,62.3v-2.7h1v6.6h-1v-3.1h-3.8v3.1h-1v-6.6h1v2.7H348.3z"/>
	<path id="XMLID_16_" d="M357.9,62.3v-2.7h1v6.6h-1v-3.1h-3.8v3.1h-1v-6.6h1v2.7H357.9z"/>
	<path id="XMLID_12_" d="M364.3,64.3h-2.9l-0.8,1.9h-1l2.7-6.6h1.1l2.6,6.6H365L364.3,64.3z M362.5,59l-1.3-1.3h1.1l0.9,1.3H362.5z
		 M361.7,63.5h2.2l-1.1-2.9L361.7,63.5z"/>
	<path id="XMLID_10_" d="M368.7,60.4v-0.8h5.8v0.8h-2.4v5.8h-1v-5.8H368.7z"/>
	<path id="XMLID_7_" d="M377.2,57.8h0.5c0,0.3-0.1,0.5-0.3,0.7c-0.2,0.2-0.4,0.3-0.7,0.3c-0.1,0-0.3,0-0.6-0.1l-0.3-0.1
		c-0.3-0.1-0.5-0.1-0.6-0.1c-0.1,0-0.2,0-0.3,0.1c-0.1,0.1-0.1,0.2-0.2,0.3h-0.5c0-0.3,0.1-0.5,0.3-0.7c0.2-0.2,0.4-0.3,0.8-0.3
		c0.1,0,0.2,0,0.3,0c0.1,0,0.2,0.1,0.3,0.1l0.2,0.1c0.1,0,0.2,0.1,0.3,0.1c0.1,0,0.2,0,0.2,0c0.2,0,0.3,0,0.4-0.1
		C377.2,58,377.2,57.9,377.2,57.8z M376.3,59.6v6.6h-1v-6.6H376.3z"/>
	<path id="XMLID_5_" d="M382.4,59.6h0.9v6.6h-1.1l-3.7-5.3l0,5.3h-0.9v-6.6h1.2l3.6,5.3L382.4,59.6z"/>
	<path id="XMLID_3_" d="M389.5,62.3v-2.7h1v6.6h-1v-3.1h-3.8v3.1h-1v-6.6h1v2.7H389.5z"/>
</g>
<rect id="XMLID_128_" x="0.1" y="1" class="st1" width="68" height="68"/>
<path id="XMLID_174_" class="st2" d="M41.4,36.9v10.9c0,0.6-0.5,1.2-1.1,1.2h0c-0.6,0-1.1-0.5-1.1-1.2v-8.6h-8.8v8.6
	c0,0.6-0.5,1.2-1.1,1.2h0c-0.6,0-1.1-0.5-1.1-1.2V36.9h2.2l0,0h8.8l0,0H41.4z"/>
<path id="XMLID_173_" class="st2" d="M25.3,22.9L25.3,22.9c0.6,0,1.1,0.5,1.1,1.2v23.7c0,0.6-0.5,1.2-1.1,1.2h0
	c-0.6,0-1.1-0.5-1.1-1.2V24.1C24.2,23.4,24.7,22.9,25.3,22.9z"/>
<path id="XMLID_172_" class="st2" d="M40.3,22.9L40.3,22.9c0.6,0,1.1,0.5,1.1,1.2v11.3c-4.4,0-8.8,0-13.3,0V24.1
	c0-0.6,0.5-1.2,1.1-1.2h0c0.6,0,1.1,0.5,1.1,1.2v9h8.8v-9C39.2,23.4,39.7,22.9,40.3,22.9z"/>
<path id="XMLID_168_" class="st2" d="M44.2,22.9L44.2,22.9c0.6,0,1.1,0.5,1.1,1.2v23.7c0,0.6-0.5,1.2-1.1,1.2h0
	c-0.6,0-1.1-0.5-1.1-1.2V24.1C43.1,23.4,43.5,22.9,44.2,22.9z"/>
<g id="XMLID_127_">
	<path id="XMLID_131_" class="st2" d="M56.7,28.7v19.1c0,0.6-0.5,1.2-1.1,1.2h0c-0.6,0-1.1-0.5-1.1-1.2c0-1.6-0.1-21.3,0-21.3h8.4
		c0.4,0,0.8,0.5,0.8,1.1v0c0,0.6-0.4,1.1-0.8,1.1H56.7L56.7,28.7z M43.8,27.6L43.8,27.6c0-0.6,0.4-1.1,0.8-1.1H53v21.3
		c0,0.6-0.5,1.2-1.1,1.2h0c-0.6,0-1.1-0.5-1.1-1.2V28.7h-6.2C44.1,28.7,43.8,28.2,43.8,27.6z"/>
	<path id="XMLID_130_" class="st2" d="M43.5,24L43.5,24c0-0.6,0.4-1.1,0.9-1.1h18.4c0.5,0,0.9,0.5,0.9,1.1v0c0,0.6-0.4,1.1-0.9,1.1
		H44.4C44,25.1,43.5,24.6,43.5,24z"/>
</g>
<g id="XMLID_121_">
	<path id="XMLID_126_" class="st2" d="M4.7,29.5c0.3-6.8,10.9-9.7,15.5-3.7c1.8,2.1,1.9,6,0.8,7.4c4.5,2.6,5,9.1,1.7,12.3
		s-6.8,4.3-11.3,2.5c0.1,1.6-2.4,1.3-2.4,0.1c-0.1-4-0.1-4-0.1-4c3.1,3.6,10,3.7,12.8-1.2c2.2-3.4-0.2-8-4.6-9
		c3.3-2.2,2.7-7.5-1.6-8.7c-3.2-1.1-7.8,0.2-8.5,4.1C7,48,7,48,7,48c0,1.5-2.4,1.4-2.3-0.1C4.7,29.5,4.7,29.5,4.7,29.5z"/>
	<path id="XMLID_122_" class="st2" d="M13.1,35h2.3c2.5,0.1,5,2.4,5.2,4.9v0.5c-0.1,1.4-0.9,2.8-2.8,4c-1.3,0.8-3.1,0.9-4.7,0.5
		v-2.5c1.1,0.5,2.5,0.6,3.6,0c3.2-2.1,1.1-4.7-1.5-5l-2.1,0V35L13.1,35z M13.1,26.4c1.1,0,2.3,0.3,3.2,1.1c2.1,1.8,1.2,5.7-2.8,6.1
		h-0.4v-2.1h0.4c1-0.2,1.5-0.7,1.4-1.8c-0.1-0.8-0.9-1.2-1.8-1.2V26.4z M11.2,35h1.9v2.4l-1.9,0v2.8c0.1,1,0.8,1.8,1.9,2.3v2.5
		C10.9,44.3,9,42.6,9,40.5c-0.1-3.7-0.1-7.2-0.1-11c0.2-1.7,2.1-3,4.2-3.1v2.1c-0.9,0-1.8,0.4-1.8,1.3l0,1.7h1.8v2.1l-1.9,0V35z"/>
</g>
</svg>
