<?xml version="1.0" encoding="UTF-8"?>
<!DOCTYPE svg PUBLIC "-//W3C//DTD SVG 1.1//EN" "http://www.w3.org/Graphics/SVG/1.1/DTD/svg11.dtd">
<svg version="1.2" width="245.98mm" height="40.89mm" viewBox="2953 3832 24598 4089" preserveAspectRatio="xMidYMid" fill-rule="evenodd" stroke-width="28.222" stroke-linejoin="round" xmlns="http://www.w3.org/2000/svg" xmlns:ooo="http://xml.openoffice.org/svg/export" xmlns:xlink="http://www.w3.org/1999/xlink" xmlns:presentation="http://sun.com/xmlns/staroffice/presentation" xmlns:smil="http://www.w3.org/2001/SMIL20/" xmlns:anim="urn:oasis:names:tc:opendocument:xmlns:animation:1.0" xml:space="preserve">
 <defs class="ClipPathGroup">
  <clipPath id="presentation_clip_path" clipPathUnits="userSpaceOnUse">
   <rect x="2953" y="3832" width="24598" height="4089"/>
  </clipPath>
  <clipPath id="presentation_clip_path_shrink" clipPathUnits="userSpaceOnUse">
   <rect x="2977" y="3836" width="24549" height="4081"/>
  </clipPath>
 </defs>
 <defs class="TextShapeIndex">
  <g ooo:slide="id1" ooo:id-list="id3 id4 id5 id6 id7 id8 id9 id10 id11 id12 id13 id14 id15 id16 id17 id18"/>
 </defs>
 <defs class="EmbeddedBulletChars">
  <g id="bullet-char-template-57356" transform="scale(0.00048828125,-0.00048828125)">
   <path d="M 580,1141 L 1163,571 580,0 -4,571 580,1141 Z"/>
  </g>
  <g id="bullet-char-template-57354" transform="scale(0.00048828125,-0.00048828125)">
   <path d="M 8,1128 L 1137,1128 1137,0 8,0 8,1128 Z"/>
  </g>
  <g id="bullet-char-template-10146" transform="scale(0.00048828125,-0.00048828125)">
   <path d="M 174,0 L 602,739 174,1481 1456,739 174,0 Z M 1358,739 L 309,1346 659,739 1358,739 Z"/>
  </g>
  <g id="bullet-char-template-10132" transform="scale(0.00048828125,-0.00048828125)">
   <path d="M 2015,739 L 1276,0 717,0 1260,543 174,543 174,936 1260,936 717,1481 1274,1481 2015,739 Z"/>
  </g>
  <g id="bullet-char-template-10007" transform="scale(0.00048828125,-0.00048828125)">
   <path d="M 0,-2 C -7,14 -16,27 -25,37 L 356,567 C 262,823 215,952 215,954 215,979 228,992 255,992 264,992 276,990 289,987 310,991 331,999 354,1012 L 381,999 492,748 772,1049 836,1024 860,1049 C 881,1039 901,1025 922,1006 886,937 835,863 770,784 769,783 710,716 594,584 L 774,223 C 774,196 753,168 711,139 L 727,119 C 717,90 699,76 672,76 641,76 570,178 457,381 L 164,-76 C 142,-110 111,-127 72,-127 30,-127 9,-110 8,-76 1,-67 -2,-52 -2,-32 -2,-23 -1,-13 0,-2 Z"/>
  </g>
  <g id="bullet-char-template-10004" transform="scale(0.00048828125,-0.00048828125)">
   <path d="M 285,-33 C 182,-33 111,30 74,156 52,228 41,333 41,471 41,549 55,616 82,672 116,743 169,778 240,778 293,778 328,747 346,684 L 369,508 C 377,444 397,411 428,410 L 1163,1116 C 1174,1127 1196,1133 1229,1133 1271,1133 1292,1118 1292,1087 L 1292,965 C 1292,929 1282,901 1262,881 L 442,47 C 390,-6 338,-33 285,-33 Z"/>
  </g>
  <g id="bullet-char-template-9679" transform="scale(0.00048828125,-0.00048828125)">
   <path d="M 813,0 C 632,0 489,54 383,161 276,268 223,411 223,592 223,773 276,916 383,1023 489,1130 632,1184 813,1184 992,1184 1136,1130 1245,1023 1353,916 1407,772 1407,592 1407,412 1353,268 1245,161 1136,54 992,0 813,0 Z"/>
  </g>
  <g id="bullet-char-template-8226" transform="scale(0.00048828125,-0.00048828125)">
   <path d="M 346,457 C 273,457 209,483 155,535 101,586 74,649 74,723 74,796 101,859 155,911 209,963 273,989 346,989 419,989 480,963 531,910 582,859 608,796 608,723 608,648 583,586 532,535 482,483 420,457 346,457 Z"/>
  </g>
  <g id="bullet-char-template-8211" transform="scale(0.00048828125,-0.00048828125)">
   <path d="M -4,459 L 1135,459 1135,606 -4,606 -4,459 Z"/>
  </g>
  <g id="bullet-char-template-61548" transform="scale(0.00048828125,-0.00048828125)">
   <path d="M 173,740 C 173,903 231,1043 346,1159 462,1274 601,1332 765,1332 928,1332 1067,1274 1183,1159 1299,1043 1357,903 1357,740 1357,577 1299,437 1183,322 1067,206 928,148 765,148 601,148 462,206 346,322 231,437 173,577 173,740 Z"/>
  </g>
 </defs>
 <defs class="TextEmbeddedBitmaps"/>
 <g class="SlideGroup">
  <g>
   <g id="container-id1">
    <g id="id1" class="Slide" clip-path="url(#presentation_clip_path)">
     <g class="Page">
      <g class="Group">
       <g class="com.sun.star.drawing.ClosedBezierShape">
        <g id="id3">
         <rect class="BoundingBox" stroke="none" fill="none" x="3093" y="4734" width="3335" height="2472"/>
         <path fill="rgb(128,128,128)" stroke="none" d="M 3596,4735 C 3619,4735 3636,4739 3647,4746 3658,4753 3668,4764 3677,4781 L 4711,6679 C 4718,6696 4732,6704 4753,6704 L 4771,6704 C 4787,6704 4800,6696 4810,6679 L 5829,4781 C 5843,4750 5870,4735 5910,4735 L 6372,4735 C 6401,4735 6418,4743 6424,4758 6429,4773 6427,4793 6415,4816 L 5258,6937 C 5199,7045 5141,7117 5085,7152 5028,7187 4962,7205 4887,7205 L 4683,7205 C 4591,7205 4515,7187 4455,7152 4395,7117 4336,7045 4277,6937 L 3106,4816 C 3094,4793 3091,4773 3097,4758 3103,4743 3121,4735 3151,4735 L 3596,4735 Z"/>
        </g>
       </g>
       <g class="com.sun.star.drawing.ClosedBezierShape">
        <g id="id4">
         <rect class="BoundingBox" stroke="none" fill="none" x="6711" y="4734" width="542" height="2472"/>
         <path fill="rgb(128,128,128)" stroke="none" d="M 7174,4735 C 7226,4735 7252,4761 7252,4813 L 7252,7127 C 7252,7179 7226,7205 7174,7205 L 6793,7205 C 6739,7205 6712,7179 6712,7127 L 6712,4813 C 6712,4761 6739,4735 6793,4735 L 7174,4735 Z"/>
        </g>
       </g>
       <g class="com.sun.star.drawing.ClosedBezierShape">
        <g id="id5">
         <rect class="BoundingBox" stroke="none" fill="none" x="7691" y="3973" width="2623" height="3950"/>
         <path fill="rgb(128,128,128)" stroke="none" d="M 7692,7205 L 7692,7205 Z M 10232,4735 C 10286,4735 10313,4761 10313,4813 L 10313,5148 C 10313,5200 10286,5225 10232,5225 L 8690,5225 C 8598,5225 8522,5233 8462,5248 8403,5264 8354,5290 8318,5326 8281,5363 8256,5412 8242,5474 8228,5537 8221,5614 8221,5706 L 8221,5741 10214,5741 C 10266,5741 10292,5767 10292,5819 L 10292,6097 C 10292,6149 10266,6175 10214,6175 L 8221,6175 8221,6235 C 8221,6327 8228,6404 8242,6466 8256,6528 8281,6578 8318,6614 8354,6651 8403,6676 8462,6692 8522,6707 8598,6715 8690,6715 L 10232,6715 C 10286,6715 10313,6740 10313,6792 L 10313,7127 C 10313,7179 10286,7205 10232,7205 L 8679,7205 C 8501,7205 8349,7189 8224,7156 8100,7123 7998,7069 7919,6995 7840,6921 7783,6825 7746,6706 7710,6587 7692,6443 7692,6273 L 7692,5667 C 7692,5497 7710,5354 7746,5236 7783,5118 7840,5023 7919,4949 7998,4874 8100,4820 8224,4786 8349,4752 8501,4735 8679,4735 L 10232,4735 Z M 9300,7459 C 9352,7459 9378,7480 9378,7523 L 9378,7858 C 9378,7900 9352,7921 9300,7921 L 8955,7921 C 8903,7921 8877,7900 8877,7858 L 8877,7523 C 8877,7480 8903,7459 8955,7459 L 9300,7459 Z M 9283,3973 C 9323,3973 9354,3979 9376,3992 9399,4005 9419,4025 9438,4051 L 9808,4552 C 9825,4573 9828,4590 9817,4604 9807,4619 9790,4626 9766,4626 L 9491,4626 C 9444,4626 9407,4604 9382,4562 L 9180,4259 C 9171,4240 9156,4231 9135,4231 L 9120,4231 C 9099,4231 9084,4240 9075,4259 L 8870,4562 C 8858,4586 8844,4602 8828,4612 8811,4621 8789,4626 8761,4626 L 8489,4626 C 8463,4626 8445,4619 8434,4604 8424,4590 8427,4573 8443,4552 L 8817,4051 C 8836,4025 8856,4005 8877,3992 8898,3979 8929,3973 8969,3973 L 9283,3973 Z"/>
        </g>
       </g>
       <g class="com.sun.star.drawing.ClosedBezierShape">
        <g id="id6">
         <rect class="BoundingBox" stroke="none" fill="none" x="10565" y="4734" width="2919" height="2472"/>
         <path fill="rgb(128,128,128)" stroke="none" d="M 13402,4735 C 13456,4735 13483,4761 13483,4813 L 13483,5158 C 13483,5213 13456,5240 13402,5240 L 12294,5240 12294,7127 C 12294,7179 12268,7205 12216,7205 L 11832,7205 C 11780,7205 11754,7179 11754,7127 L 11754,5240 10646,5240 C 10592,5240 10565,5213 10565,5158 L 10565,4813 C 10565,4761 10592,4735 10646,4735 L 13402,4735 Z"/>
        </g>
       </g>
       <g class="com.sun.star.drawing.ClosedBezierShape">
        <g id="id7">
         <rect class="BoundingBox" stroke="none" fill="none" x="14968" y="4734" width="2518" height="2472"/>
         <path fill="rgb(128,128,128)" stroke="none" d="M 15431,4735 C 15483,4735 15509,4761 15509,4813 L 15509,6221 C 15509,6315 15516,6393 15532,6455 15547,6518 15572,6567 15607,6603 15643,6640 15690,6666 15750,6681 15810,6696 15886,6704 15978,6704 L 17407,6704 C 17458,6704 17484,6730 17484,6782 L 17484,7127 C 17484,7179 17458,7205 17407,7205 L 15957,7205 C 15778,7205 15626,7189 15502,7156 15377,7123 15275,7069 15196,6995 15118,6921 15060,6825 15023,6706 14987,6587 14969,6443 14969,6273 L 14969,4813 C 14969,4761 14996,4735 15050,4735 L 15431,4735 Z"/>
        </g>
       </g>
       <g class="com.sun.star.drawing.ClosedBezierShape">
        <g id="id8">
         <rect class="BoundingBox" stroke="none" fill="none" x="17771" y="4734" width="3068" height="2472"/>
         <path fill="rgb(128,128,128)" stroke="none" d="M 19850,4735 C 20028,4735 20181,4752 20306,4786 20432,4820 20535,4874 20613,4949 20692,5023 20749,5118 20785,5236 20820,5354 20837,5497 20837,5667 L 20837,6273 C 20837,6443 20820,6587 20785,6706 20749,6825 20692,6921 20613,6995 20535,7069 20432,7123 20306,7156 20181,7189 20028,7205 19850,7205 L 18759,7205 C 18581,7205 18429,7189 18304,7156 18180,7123 18078,7069 17999,6995 17920,6921 17863,6825 17826,6706 17790,6587 17772,6443 17772,6273 L 17772,5667 C 17772,5497 17790,5354 17826,5236 17863,5118 17920,5023 17999,4949 18078,4874 18180,4820 18304,4786 18429,4752 18581,4735 18759,4735 L 19850,4735 Z M 18311,6235 C 18311,6326 18319,6403 18334,6466 18350,6528 18375,6578 18410,6614 18445,6650 18493,6676 18553,6692 18613,6707 18689,6715 18781,6715 L 19828,6715 C 19920,6715 19996,6707 20056,6692 20116,6676 20164,6650 20199,6614 20234,6578 20259,6528 20275,6466 20290,6403 20298,6326 20298,6235 L 20298,5705 C 20298,5614 20290,5537 20275,5474 20259,5412 20234,5362 20199,5326 20164,5290 20116,5264 20056,5248 19996,5233 19920,5225 19828,5225 L 18781,5225 C 18689,5225 18613,5233 18553,5248 18493,5264 18445,5290 18410,5326 18375,5362 18350,5412 18334,5474 18319,5537 18311,5614 18311,5705 L 18311,6235 Z"/>
        </g>
       </g>
       <g class="com.sun.star.drawing.ClosedBezierShape">
        <g id="id9">
         <rect class="BoundingBox" stroke="none" fill="none" x="21274" y="4734" width="2984" height="2472"/>
         <path fill="rgb(128,128,128)" stroke="none" d="M 21903,4735 C 21959,4735 22006,4737 22044,4742 22082,4747 22115,4757 22143,4772 22171,4787 22198,4809 22224,4836 22250,4863 22279,4899 22312,4943 L 23625,6665 C 23634,6682 23649,6690 23670,6690 L 23702,6690 C 23721,6690 23730,6678 23730,6655 L 23730,4813 C 23730,4761 23756,4735 23808,4735 L 24178,4735 C 24230,4735 24256,4761 24256,4813 L 24256,6838 C 24256,6982 24230,7079 24178,7129 24127,7180 24047,7205 23938,7205 L 23635,7205 C 23581,7205 23536,7203 23499,7198 23463,7193 23430,7184 23402,7170 23374,7156 23346,7135 23319,7108 23292,7081 23261,7044 23226,6997 L 21910,5275 C 21896,5258 21880,5250 21864,5250 L 21832,5250 C 21813,5250 21804,5262 21804,5285 L 21804,7127 C 21804,7179 21778,7205 21726,7205 L 21356,7205 C 21302,7205 21275,7179 21275,7127 L 21275,5102 C 21275,4958 21301,4861 21352,4811 21404,4760 21484,4735 21592,4735 L 21903,4735 Z"/>
        </g>
       </g>
       <g class="com.sun.star.drawing.ClosedBezierShape">
        <g id="id10">
         <rect class="BoundingBox" stroke="none" fill="none" x="24696" y="4734" width="2856" height="2472"/>
         <path fill="rgb(128,128,128)" stroke="none" d="M 27473,4735 C 27525,4735 27551,4761 27551,4813 L 27551,5158 C 27551,5213 27525,5240 27473,5240 L 25706,5240 C 25614,5240 25538,5247 25478,5262 25418,5278 25370,5304 25335,5340 25300,5377 25275,5425 25259,5487 25244,5548 25236,5625 25236,5719 L 25236,6228 C 25236,6322 25244,6400 25259,6462 25275,6525 25300,6574 25335,6610 25370,6647 25418,6673 25478,6688 25538,6703 25614,6711 25706,6711 L 26870,6711 C 26931,6711 26976,6695 27004,6663 27032,6632 27046,6576 27046,6496 L 27046,6210 C 27046,6179 27032,6164 27004,6164 L 25970,6164 C 25918,6164 25893,6137 25893,6083 L 25893,5818 C 25893,5764 25918,5737 25970,5737 L 27441,5737 C 27512,5737 27547,5772 27547,5843 L 27547,6665 C 27547,6863 27510,7002 27434,7083 27359,7164 27251,7205 27110,7205 L 25684,7205 C 25506,7205 25354,7189 25229,7156 25105,7123 25003,7069 24924,6995 24845,6921 24788,6825 24751,6706 24715,6587 24697,6443 24697,6273 L 24697,5667 C 24697,5497 24715,5354 24751,5236 24788,5118 24845,5023 24924,4949 25003,4874 25105,4820 25229,4786 25354,4752 25506,4735 25684,4735 L 27473,4735 Z"/>
        </g>
       </g>
       <g class="com.sun.star.drawing.ClosedBezierShape">
        <g id="id11">
         <rect class="BoundingBox" stroke="none" fill="none" x="2952" y="4593" width="3335" height="2472"/>
         <path fill="rgb(0,123,255)" stroke="none" d="M 3455,4594 C 3478,4594 3495,4598 3506,4605 3517,4612 3527,4623 3536,4640 L 4570,6538 C 4577,6555 4591,6563 4612,6563 L 4630,6563 C 4646,6563 4659,6555 4669,6538 L 5688,4640 C 5702,4609 5729,4594 5769,4594 L 6231,4594 C 6260,4594 6277,4602 6283,4617 6288,4632 6286,4652 6274,4675 L 5117,6796 C 5058,6904 5000,6976 4944,7011 4887,7046 4821,7064 4746,7064 L 4542,7064 C 4450,7064 4374,7046 4314,7011 4254,6976 4195,6904 4136,6796 L 2965,4675 C 2953,4652 2950,4632 2956,4617 2962,4602 2980,4594 3010,4594 L 3455,4594 Z"/>
        </g>
       </g>
       <g class="com.sun.star.drawing.ClosedBezierShape">
        <g id="id12">
         <rect class="BoundingBox" stroke="none" fill="none" x="6570" y="4593" width="542" height="2472"/>
         <path fill="rgb(0,123,255)" stroke="none" d="M 7033,4594 C 7085,4594 7111,4620 7111,4672 L 7111,6986 C 7111,7038 7085,7064 7033,7064 L 6652,7064 C 6598,7064 6571,7038 6571,6986 L 6571,4672 C 6571,4620 6598,4594 6652,4594 L 7033,4594 Z"/>
        </g>
       </g>
       <g class="com.sun.star.drawing.ClosedBezierShape">
        <g id="id13">
         <rect class="BoundingBox" stroke="none" fill="none" x="7550" y="3832" width="2623" height="3950"/>
         <path fill="rgb(0,123,255)" stroke="none" d="M 7551,7064 L 7551,7064 Z M 10091,4594 C 10145,4594 10172,4620 10172,4672 L 10172,5007 C 10172,5059 10145,5084 10091,5084 L 8549,5084 C 8457,5084 8381,5092 8321,5107 8262,5123 8213,5149 8177,5185 8140,5222 8115,5271 8101,5333 8087,5396 8080,5473 8080,5565 L 8080,5600 10073,5600 C 10125,5600 10151,5626 10151,5678 L 10151,5956 C 10151,6008 10125,6034 10073,6034 L 8080,6034 8080,6094 C 8080,6186 8087,6263 8101,6325 8115,6387 8140,6437 8177,6473 8213,6510 8262,6535 8321,6551 8381,6566 8457,6574 8549,6574 L 10091,6574 C 10145,6574 10172,6599 10172,6651 L 10172,6986 C 10172,7038 10145,7064 10091,7064 L 8538,7064 C 8360,7064 8208,7048 8083,7015 7959,6982 7857,6928 7778,6854 7699,6780 7642,6684 7605,6565 7569,6446 7551,6302 7551,6132 L 7551,5526 C 7551,5356 7569,5213 7605,5095 7642,4977 7699,4882 7778,4808 7857,4733 7959,4679 8083,4645 8208,4611 8360,4594 8538,4594 L 10091,4594 Z M 9159,7318 C 9211,7318 9237,7339 9237,7382 L 9237,7717 C 9237,7759 9211,7780 9159,7780 L 8814,7780 C 8762,7780 8736,7759 8736,7717 L 8736,7382 C 8736,7339 8762,7318 8814,7318 L 9159,7318 Z M 9142,3832 C 9182,3832 9213,3838 9235,3851 9258,3864 9278,3884 9297,3910 L 9667,4411 C 9684,4432 9687,4449 9676,4463 9666,4478 9649,4485 9625,4485 L 9350,4485 C 9303,4485 9266,4463 9241,4421 L 9039,4118 C 9030,4099 9015,4090 8994,4090 L 8979,4090 C 8958,4090 8943,4099 8934,4118 L 8729,4421 C 8717,4445 8703,4461 8687,4471 8670,4480 8648,4485 8620,4485 L 8348,4485 C 8322,4485 8304,4478 8293,4463 8283,4449 8286,4432 8302,4411 L 8676,3910 C 8695,3884 8715,3864 8736,3851 8757,3838 8788,3832 8828,3832 L 9142,3832 Z"/>
        </g>
       </g>
       <g class="com.sun.star.drawing.ClosedBezierShape">
        <g id="id14">
         <rect class="BoundingBox" stroke="none" fill="none" x="10424" y="4593" width="2919" height="2472"/>
         <path fill="rgb(0,123,255)" stroke="none" d="M 13261,4594 C 13315,4594 13342,4620 13342,4672 L 13342,5017 C 13342,5071 13315,5099 13261,5099 L 12153,5099 12153,6986 C 12153,7038 12127,7064 12075,7064 L 11691,7064 C 11639,7064 11613,7038 11613,6986 L 11613,5099 10505,5099 C 10451,5099 10424,5071 10424,5017 L 10424,4672 C 10424,4620 10451,4594 10505,4594 L 13261,4594 Z"/>
        </g>
       </g>
       <g class="com.sun.star.drawing.ClosedBezierShape">
        <g id="id15">
         <rect class="BoundingBox" stroke="none" fill="none" x="14827" y="4593" width="2518" height="2472"/>
         <path fill="rgb(0,123,255)" stroke="none" d="M 15290,4594 C 15342,4594 15368,4620 15368,4672 L 15368,6080 C 15368,6174 15375,6252 15391,6314 15406,6377 15431,6426 15466,6462 15502,6499 15549,6525 15609,6540 15669,6555 15745,6563 15837,6563 L 17266,6563 C 17317,6563 17343,6589 17343,6641 L 17343,6986 C 17343,7038 17317,7064 17266,7064 L 15816,7064 C 15637,7064 15485,7048 15361,7015 15236,6982 15134,6928 15055,6854 14977,6780 14919,6684 14882,6565 14846,6446 14828,6302 14828,6132 L 14828,4672 C 14828,4620 14855,4594 14909,4594 L 15290,4594 Z"/>
        </g>
       </g>
       <g class="com.sun.star.drawing.ClosedBezierShape">
        <g id="id16">
         <rect class="BoundingBox" stroke="none" fill="none" x="17630" y="4593" width="3068" height="2472"/>
         <path fill="rgb(0,123,255)" stroke="none" d="M 19709,4594 C 19887,4594 20040,4611 20165,4645 20291,4679 20394,4733 20472,4808 20551,4882 20608,4977 20644,5095 20679,5213 20696,5356 20696,5526 L 20696,6132 C 20696,6302 20679,6446 20644,6565 20608,6684 20551,6780 20472,6854 20394,6928 20291,6982 20165,7015 20040,7048 19887,7064 19709,7064 L 18618,7064 C 18440,7064 18288,7048 18163,7015 18039,6982 17937,6928 17858,6854 17779,6780 17722,6684 17685,6565 17649,6446 17631,6302 17631,6132 L 17631,5526 C 17631,5356 17649,5213 17685,5095 17722,4977 17779,4882 17858,4808 17937,4733 18039,4679 18163,4645 18288,4611 18440,4594 18618,4594 L 19709,4594 Z M 18170,6094 C 18170,6185 18178,6262 18193,6325 18209,6387 18234,6437 18269,6473 18304,6509 18352,6535 18412,6551 18472,6566 18548,6574 18640,6574 L 19687,6574 C 19779,6574 19855,6566 19915,6551 19975,6535 20023,6509 20058,6473 20093,6437 20118,6387 20134,6325 20149,6262 20157,6185 20157,6094 L 20157,5564 C 20157,5473 20149,5396 20134,5333 20118,5271 20093,5221 20058,5185 20023,5149 19975,5123 19915,5107 19855,5092 19779,5084 19687,5084 L 18640,5084 C 18548,5084 18472,5092 18412,5107 18352,5123 18304,5149 18269,5185 18234,5221 18209,5271 18193,5333 18178,5396 18170,5473 18170,5564 L 18170,6094 Z"/>
        </g>
       </g>
       <g class="com.sun.star.drawing.ClosedBezierShape">
        <g id="id17">
         <rect class="BoundingBox" stroke="none" fill="none" x="21133" y="4593" width="2984" height="2472"/>
         <path fill="rgb(0,123,255)" stroke="none" d="M 21762,4594 C 21818,4594 21865,4596 21903,4601 21941,4606 21974,4616 22002,4631 22030,4646 22057,4668 22083,4695 22109,4722 22138,4758 22171,4802 L 23484,6524 C 23493,6541 23508,6549 23529,6549 L 23561,6549 C 23580,6549 23589,6537 23589,6514 L 23589,4672 C 23589,4620 23615,4594 23667,4594 L 24037,4594 C 24089,4594 24115,4620 24115,4672 L 24115,6697 C 24115,6841 24089,6938 24037,6988 23986,7039 23906,7064 23797,7064 L 23494,7064 C 23440,7064 23395,7062 23358,7057 23322,7052 23289,7043 23261,7029 23233,7015 23205,6994 23178,6967 23151,6940 23120,6903 23085,6856 L 21769,5134 C 21755,5117 21739,5109 21723,5109 L 21691,5109 C 21672,5109 21663,5121 21663,5144 L 21663,6986 C 21663,7038 21637,7064 21585,7064 L 21215,7064 C 21161,7064 21134,7038 21134,6986 L 21134,4961 C 21134,4817 21160,4720 21211,4670 21263,4619 21343,4594 21451,4594 L 21762,4594 Z"/>
        </g>
       </g>
       <g class="com.sun.star.drawing.ClosedBezierShape">
        <g id="id18">
         <rect class="BoundingBox" stroke="none" fill="none" x="24555" y="4593" width="2856" height="2472"/>
         <path fill="rgb(0,123,255)" stroke="none" d="M 27332,4594 C 27384,4594 27410,4620 27410,4672 L 27410,5017 C 27410,5071 27384,5099 27332,5099 L 25565,5099 C 25473,5099 25397,5106 25337,5121 25277,5137 25229,5163 25194,5199 25159,5236 25134,5284 25118,5346 25103,5407 25095,5484 25095,5578 L 25095,6087 C 25095,6181 25103,6259 25118,6321 25134,6384 25159,6433 25194,6469 25229,6506 25277,6532 25337,6547 25397,6562 25473,6570 25565,6570 L 26729,6570 C 26790,6570 26835,6554 26863,6522 26891,6491 26905,6435 26905,6355 L 26905,6069 C 26905,6038 26891,6023 26863,6023 L 25829,6023 C 25777,6023 25752,5996 25752,5942 L 25752,5677 C 25752,5623 25777,5596 25829,5596 L 27300,5596 C 27371,5596 27406,5631 27406,5702 L 27406,6524 C 27406,6722 27369,6861 27293,6942 27218,7023 27110,7064 26969,7064 L 25543,7064 C 25365,7064 25213,7048 25088,7015 24964,6982 24862,6928 24783,6854 24704,6780 24647,6684 24610,6565 24574,6446 24556,6302 24556,6132 L 24556,5526 C 24556,5356 24574,5213 24610,5095 24647,4977 24704,4882 24783,4808 24862,4733 24964,4679 25088,4645 25213,4611 25365,4594 25543,4594 L 27332,4594 Z"/>
        </g>
       </g>
      </g>
     </g>
    </g>
   </g>
  </g>
 </g>
</svg>